<svg width="565" height="76" viewBox="0 0 565 76" fill="none" xmlns="http://www.w3.org/2000/svg">
<path d="M31.2869 5.18182L40.3551 27.2386H40.9006L57.4688 5.18182H77.0028L50.2074 40.0909L66.0938 75H47.1733L37.7642 52.7045H37.2188L20.446 75H0.775568L28.2869 40.0909L12.9119 5.18182H31.2869ZM74.1392 75L82.8665 22.6364H99.5369L90.8097 75H74.1392ZM92.3778 16.5C90.0142 16.5 88.0938 15.7159 86.6165 14.1477C85.1392 12.5795 84.5597 10.7045 84.8778 8.52272C85.196 6.31818 86.3097 4.44318 88.2188 2.89772C90.1278 1.35227 92.2528 0.579546 94.5938 0.579546C96.9574 0.579546 98.8551 1.35227 100.287 2.89772C101.741 4.44318 102.31 6.31818 101.991 8.52272C101.719 10.7045 100.628 12.5795 98.7188 14.1477C96.8324 15.7159 94.7188 16.5 92.3778 16.5Z" fill="url(#paint0_linear_3_3)"/>
<path d="M116.045 75.8864C112.727 75.8864 109.864 75.3295 107.455 74.2159C105.068 73.0795 103.318 71.3636 102.205 69.0682C101.114 66.7727 100.852 63.9091 101.42 60.4773C101.92 57.5682 102.841 55.125 104.182 53.1477C105.545 51.1477 107.216 49.5227 109.193 48.2727C111.193 47.0227 113.42 46.0682 115.875 45.4091C118.33 44.75 120.898 44.3068 123.58 44.0795C126.58 43.8068 129.011 43.5114 130.875 43.1932C132.761 42.875 134.17 42.4318 135.102 41.8636C136.034 41.2727 136.602 40.4545 136.807 39.4091V39.2386C137.08 37.4886 136.705 36.1364 135.682 35.1818C134.659 34.2273 133.125 33.75 131.08 33.75C128.898 33.75 127.034 34.2273 125.489 35.1818C123.943 36.1364 122.864 37.4545 122.25 39.1364L106.977 38.5909C107.932 35.4091 109.568 32.5682 111.886 30.0682C114.205 27.5455 117.148 25.5682 120.716 24.1364C124.307 22.6818 128.455 21.9545 133.159 21.9545C136.477 21.9545 139.477 22.3523 142.159 23.1477C144.841 23.9205 147.102 25.0568 148.943 26.5568C150.807 28.0341 152.136 29.8523 152.932 32.0114C153.727 34.1705 153.898 36.6364 153.443 39.4091L147.477 75H131.795L133.023 67.7045H132.614C131.386 69.4773 129.943 70.9773 128.284 72.2045C126.648 73.4318 124.807 74.3523 122.761 74.9659C120.716 75.5795 118.477 75.8864 116.045 75.8864ZM123.068 64.9773C124.818 64.9773 126.477 64.6136 128.045 63.8864C129.614 63.1591 130.932 62.1591 132 60.8864C133.091 59.5909 133.784 58.0909 134.08 56.3864L134.864 51.4091C134.386 51.6591 133.784 51.8864 133.057 52.0909C132.33 52.2955 131.557 52.4886 130.739 52.6705C129.92 52.8295 129.08 52.9886 128.216 53.1477C127.375 53.2841 126.568 53.4091 125.795 53.5227C124.159 53.7727 122.739 54.1591 121.534 54.6818C120.33 55.2045 119.364 55.8864 118.636 56.7273C117.932 57.5455 117.5 58.5227 117.341 59.6591C117.068 61.3636 117.466 62.6818 118.534 63.6136C119.602 64.5227 121.114 64.9773 123.068 64.9773ZM181.977 75.9886C176.455 75.9886 171.898 74.8523 168.307 72.5795C164.739 70.3068 162.239 67.1477 160.807 63.1023C159.375 59.0341 159.114 54.3295 160.023 48.9886C160.886 43.625 162.716 38.9205 165.511 34.875C168.307 30.8068 171.875 27.6364 176.216 25.3636C180.557 23.0909 185.466 21.9545 190.943 21.9545C195.784 21.9545 199.852 22.8295 203.148 24.5795C206.466 26.3295 208.864 28.8068 210.341 32.0114C211.841 35.1932 212.284 38.9318 211.67 43.2273H196.091C196.227 40.5682 195.682 38.4773 194.455 36.9545C193.227 35.4091 191.443 34.6364 189.102 34.6364C187.125 34.6364 185.307 35.1818 183.648 36.2727C182.011 37.3409 180.614 38.9318 179.455 41.0455C178.318 43.1364 177.5 45.7273 177 48.8182C176.5 51.9091 176.466 54.5227 176.898 56.6591C177.352 58.7727 178.205 60.375 179.455 61.4659C180.727 62.5341 182.341 63.0682 184.295 63.0682C185.841 63.0682 187.273 62.7386 188.591 62.0795C189.909 61.4205 191.057 60.4545 192.034 59.1818C193.011 57.8864 193.773 56.3182 194.318 54.4773H209.864C208.977 58.8182 207.261 62.6023 204.716 65.8295C202.193 69.0341 199 71.5341 195.136 73.3295C191.273 75.1023 186.886 75.9886 181.977 75.9886ZM253.236 22.6364L251.156 34.9091H218.122L220.202 22.6364H253.236ZM229.168 10.0909H245.838L237.793 58.5341C237.634 59.5568 237.656 60.3864 237.861 61.0227C238.088 61.6364 238.497 62.0795 239.088 62.3523C239.702 62.6023 240.452 62.7273 241.338 62.7273C241.952 62.7273 242.634 62.6591 243.384 62.5227C244.134 62.3864 244.702 62.2841 245.088 62.2159L245.634 74.25C244.747 74.5 243.554 74.7841 242.054 75.1023C240.577 75.4432 238.849 75.6591 236.872 75.75C232.872 75.9091 229.565 75.4432 226.952 74.3523C224.361 73.2386 222.531 71.5114 221.463 69.1705C220.418 66.8295 220.213 63.8977 220.849 60.375L229.168 10.0909ZM253.014 75L261.741 22.6364H278.412L269.685 75H253.014ZM271.253 16.5C268.889 16.5 266.969 15.7159 265.491 14.1477C264.014 12.5795 263.435 10.7045 263.753 8.52272C264.071 6.31818 265.185 4.44318 267.094 2.89772C269.003 1.35227 271.128 0.579546 273.469 0.579546C275.832 0.579546 277.73 1.35227 279.162 2.89772C280.616 4.44318 281.185 6.31818 280.866 8.52272C280.594 10.7045 279.503 12.5795 277.594 14.1477C275.707 15.7159 273.594 16.5 271.253 16.5ZM339.818 22.6364L313.125 75H294.034L284.83 22.6364H301.773L305.455 58.7045H306L321.648 22.6364H339.818ZM360.136 75.9886C354.659 75.9886 350.114 74.9091 346.5 72.75C342.909 70.5682 340.386 67.4659 338.932 63.4432C337.477 59.3977 337.216 54.5909 338.148 49.0227C339.057 43.6136 340.909 38.8864 343.705 34.8409C346.523 30.7727 350.068 27.6136 354.341 25.3636C358.614 23.0909 363.375 21.9545 368.625 21.9545C372.352 21.9545 375.659 22.5341 378.545 23.6932C381.432 24.8523 383.818 26.5795 385.705 28.875C387.591 31.1477 388.875 33.9432 389.557 37.2614C390.239 40.5795 390.216 44.3864 389.489 48.6818L388.841 52.8409H343.364L344.898 43.1591H374.898C375.17 41.3864 375.023 39.8068 374.455 38.4205C373.886 37.0341 372.966 35.9545 371.693 35.1818C370.443 34.3864 368.909 33.9886 367.091 33.9886C365.25 33.9886 363.523 34.4205 361.909 35.2841C360.318 36.125 358.966 37.2614 357.852 38.6932C356.739 40.125 356.011 41.7386 355.67 43.5341L353.864 53.4545C353.5 55.6591 353.602 57.5455 354.17 59.1136C354.739 60.6818 355.716 61.8864 357.102 62.7273C358.489 63.5455 360.273 63.9545 362.455 63.9545C363.909 63.9545 365.273 63.7614 366.545 63.375C367.818 62.9659 368.955 62.3636 369.955 61.5682C370.977 60.75 371.807 59.7614 372.443 58.6023L387.648 59.0455C386.42 62.4773 384.523 65.4659 381.955 68.0114C379.386 70.5341 376.25 72.5 372.545 73.9091C368.864 75.2955 364.727 75.9886 360.136 75.9886Z" fill="black"/>
<path d="M400.628 18.8864L402.946 5.18182H461.957L459.639 18.8864H438.469L429.196 75H412.56L421.832 18.8864H400.628ZM466.108 75.8864C462.79 75.8864 459.926 75.3295 457.517 74.2159C455.131 73.0795 453.381 71.3636 452.267 69.0682C451.176 66.7727 450.915 63.9091 451.483 60.4773C451.983 57.5682 452.903 55.125 454.244 53.1477C455.608 51.1477 457.278 49.5227 459.256 48.2727C461.256 47.0227 463.483 46.0682 465.938 45.4091C468.392 44.75 470.96 44.3068 473.642 44.0795C476.642 43.8068 479.074 43.5114 480.938 43.1932C482.824 42.875 484.233 42.4318 485.165 41.8636C486.097 41.2727 486.665 40.4545 486.869 39.4091V39.2386C487.142 37.4886 486.767 36.1364 485.744 35.1818C484.722 34.2273 483.188 33.75 481.142 33.75C478.96 33.75 477.097 34.2273 475.551 35.1818C474.006 36.1364 472.926 37.4545 472.312 39.1364L457.04 38.5909C457.994 35.4091 459.631 32.5682 461.949 30.0682C464.267 27.5455 467.21 25.5682 470.778 24.1364C474.369 22.6818 478.517 21.9545 483.222 21.9545C486.54 21.9545 489.54 22.3523 492.222 23.1477C494.903 23.9205 497.165 25.0568 499.006 26.5568C500.869 28.0341 502.199 29.8523 502.994 32.0114C503.79 34.1705 503.96 36.6364 503.506 39.4091L497.54 75H481.858L483.085 67.7045H482.676C481.449 69.4773 480.006 70.9773 478.347 72.2045C476.71 73.4318 474.869 74.3523 472.824 74.9659C470.778 75.5795 468.54 75.8864 466.108 75.8864ZM473.131 64.9773C474.881 64.9773 476.54 64.6136 478.108 63.8864C479.676 63.1591 480.994 62.1591 482.062 60.8864C483.153 59.5909 483.847 58.0909 484.142 56.3864L484.926 51.4091C484.449 51.6591 483.847 51.8864 483.119 52.0909C482.392 52.2955 481.619 52.4886 480.801 52.6705C479.983 52.8295 479.142 52.9886 478.278 53.1477C477.438 53.2841 476.631 53.4091 475.858 53.5227C474.222 53.7727 472.801 54.1591 471.597 54.6818C470.392 55.2045 469.426 55.8864 468.699 56.7273C467.994 57.5455 467.563 58.5227 467.403 59.6591C467.131 61.3636 467.528 62.6818 468.597 63.6136C469.665 64.5227 471.176 64.9773 473.131 64.9773ZM529.483 45.1364L524.506 75H507.835L516.562 22.6364H532.415L530.847 32.25H531.426C533.063 29.0455 535.438 26.5341 538.551 24.7159C541.665 22.875 545.165 21.9545 549.051 21.9545C552.71 21.9545 555.767 22.7727 558.222 24.4091C560.676 26.0455 562.415 28.3409 563.438 31.2955C564.46 34.2273 564.631 37.6705 563.949 41.625L558.358 75H541.688L546.699 44.8977C547.199 42.0114 546.847 39.75 545.642 38.1136C544.46 36.4545 542.528 35.625 539.847 35.625C538.097 35.625 536.494 36.0114 535.04 36.7841C533.608 37.5341 532.403 38.6136 531.426 40.0227C530.472 41.4318 529.824 43.1364 529.483 45.1364Z" fill="url(#paint1_linear_3_3)"/>
<defs>
<linearGradient id="paint0_linear_3_3" x1="17" y1="-3.99999" x2="137" y2="75" gradientUnits="userSpaceOnUse">
<stop stop-color="#00FFFF"/>
<stop offset="1" stop-color="#030303" stop-opacity="0"/>
</linearGradient>
<linearGradient id="paint1_linear_3_3" x1="407" y1="75" x2="570" y2="11" gradientUnits="userSpaceOnUse">
<stop stop-color="#B174FF"/>
<stop offset="1" stop-color="#767479" stop-opacity="0"/>
</linearGradient>
</defs>
</svg>
